<?xml version="1.0" standalone="no"?>
<!DOCTYPE svg PUBLIC "-//W3C//DTD SVG 20010904//EN"
 "http://www.w3.org/TR/2001/REC-SVG-20010904/DTD/svg10.dtd">
<svg version="1.0" xmlns="http://www.w3.org/2000/svg"
 width="32.000000pt" height="32.000000pt" viewBox="0 0 32.000000 32.000000"
 preserveAspectRatio="xMidYMid meet">
<metadata>
Created by potrace 1.16, written by Peter Selinger 2001-2019
</metadata>
<g transform="translate(0.000000,32.000000) scale(0.100000,-0.100000)"
fill="#000000" stroke="none">
<path d="M0 160 l0 -160 160 0 160 0 0 160 0 160 -160 0 -160 0 0 -160z m151
98 l2 -23 4 23 c4 19 25 34 22 15 -3 -20 2 -26 11 -13 8 12 10 10 10 -9 0 -16
-4 -22 -15 -17 -8 3 -15 1 -15 -4 0 -6 -7 -10 -15 -10 -8 0 -15 4 -15 10 0 5
-7 7 -15 4 -11 -5 -15 1 -15 17 0 19 2 21 10 9 9 -13 14 -7 11 13 0 4 4 7 9 7
6 0 11 -10 11 -22z m65 -37 c-15 -16 -66 -35 -66 -25 0 4 71 43 79 44 2 0 -4
-9 -13 -19z m-91 -11 c3 -5 1 -10 -4 -10 -6 0 -11 5 -11 10 0 6 2 10 4 10 3 0
8 -4 11 -10z m-5 -50 c0 -5 -8 -10 -17 -11 -15 0 -15 -2 2 -8 12 -5 25 -3 33
6 18 18 21 17 14 -9 -4 -16 -2 -19 8 -13 9 6 11 4 5 -5 -6 -9 -4 -11 4 -5 8 4
11 18 8 33 -4 23 -3 24 7 10 11 -15 13 -15 23 0 10 14 12 12 12 -15 1 -21 7
-33 19 -36 13 -4 11 -5 -5 -6 -16 -1 -23 5 -23 17 -1 15 -2 15 -13 2 -16 -20
-36 -23 -52 -10 -9 8 -15 8 -20 0 -8 -13 -45 -13 -45 0 0 5 7 7 15 4 8 -4 15
-2 15 4 0 5 -9 12 -20 15 -13 3 -18 10 -14 21 7 17 44 22 44 6z"/>
</g>
</svg>
